<?xml version="1.0" encoding="utf-8"?>
<!-- Generator: Adobe Illustrator 21.0.0, SVG Export Plug-In . SVG Version: 6.00 Build 0)  -->
<svg version="1.1" id="Layer_1" xmlns="http://www.w3.org/2000/svg" xmlns:xlink="http://www.w3.org/1999/xlink" x="0px" y="0px"
	 viewBox="0 0 240 195" style="enable-background:new 0 0 240 195;" xml:space="preserve">
<style type="text/css">
	.st0{fill:#C7CBD4;stroke:#4C4A4A;stroke-width:0.75;stroke-miterlimit:10;}
	.st1{fill:#F1F2F6;stroke:#4C4A4A;stroke-width:0.75;stroke-miterlimit:10;}
	.st2{fill:#A5ADB8;}
	.st3{fill:#C7CBD4;stroke:#4C4A4A;stroke-width:0.5;stroke-miterlimit:10;}
	.st4{fill:#2980B9;}
	.st5{fill:#D3433C;}
	.st6{fill:#D35400;}
</style>
<g>
	<polygon class="st0" points="136.6,174.9 105.6,174.9 107.8,161.6 134.4,161.6 	"/>
</g>
<g>
	<polygon class="st1" points="145.3,188.2 97,188.2 105.6,174.9 136.6,174.9 	"/>
</g>
<g>
	<rect x="97" y="188.2" class="st0" width="48.3" height="4.4"/>
</g>
<path class="st2" d="M107.8,161.6h26.6l0.5,4.4h-27.6L107.8,161.6"/>
<g>
	<path class="st1" d="M235.1,161.6H4.9c-1.9,0-3.4-1.5-3.4-3.4v-14.1h237v14.1C238.5,160.1,237,161.6,235.1,161.6z"/>
</g>
<g>
	<path class="st0" d="M238.5,146.1H1.5V4.7c0-1.3,1.1-2.4,2.4-2.4h232.2c1.3,0,2.4,1.1,2.4,2.4L238.5,146.1L238.5,146.1z"/>
</g>
<circle class="st3" cx="121.1" cy="152.8" r="2.2"/>
<g>
	<rect x="5.9" y="6.6" class="st1" width="228.1" height="135.1"/>
</g>
<g>
	<rect x="32.5" y="15" class="st4" width="175" height="24.4"/>
</g>
<rect x="32.5" y="46" class="st5" width="79.7" height="86.4"/>
<rect x="130" y="61.5" class="st6" width="77.5" height="8.9"/>
<rect x="130" y="46" class="st6" width="77.5" height="8.9"/>
<rect x="130" y="77" class="st6" width="77.5" height="8.9"/>
<rect x="130" y="108.1" class="st6" width="77.5" height="8.9"/>
<rect x="130" y="92.6" class="st6" width="77.5" height="8.9"/>
<rect x="130" y="123.6" class="st6" width="77.5" height="8.9"/>
</svg>
