<?xml version="1.0" encoding="utf-8"?>
<!-- Generator: Adobe Illustrator 21.0.0, SVG Export Plug-In . SVG Version: 6.00 Build 0)  -->
<svg version="1.1" xmlns="http://www.w3.org/2000/svg" xmlns:xlink="http://www.w3.org/1999/xlink" x="0px" y="0px"
	 viewBox="0 0 195 240" style="enable-background:new 0 0 195 240;" xml:space="preserve">
<style type="text/css">
	.st0{fill:#C7CBD4;}
	.st1{fill:#4C4A4A;}
	.st2{fill:#FFFFFF;stroke:#4C4A4A;stroke-width:0.75;stroke-miterlimit:10;}
	.st3{fill:#C7CBD4;stroke:#4C4A4A;stroke-width:0.75;stroke-miterlimit:10;}
	.st4{fill:#FFFFFF;stroke:#000000;stroke-width:0.5;stroke-miterlimit:10;}
	.st5{fill:#2980B9;}
	.st6{fill:#D3433C;}
	.st7{fill:#D35400;}
</style>
<g id="Layer_1">
	<g>
		<path class="st0" d="M39.6,235.6c-6.4,0-11.6-5.2-11.6-11.6V16c0-6.4,5.2-11.6,11.6-11.6h115.9c6.4,0,11.6,5.2,11.6,11.6v208
			c0,6.4-5.2,11.6-11.6,11.6H39.6z"/>
		<path class="st1" d="M155.4,4.8c6.2,0,11.3,5,11.3,11.3v208c0,6.2-5,11.3-11.3,11.3H39.6c-6.2,0-11.2-5-11.2-11.3V16
			c0-6.2,5-11.3,11.2-11.3H155.4 M155.4,4H39.6c-6.6,0-12,5.4-12,12v208c0,6.6,5.4,12,12,12h115.9c6.6,0,12-5.4,12-12V16
			C167.4,9.4,162,4,155.4,4L155.4,4z"/>
	</g>
	<path class="st2" d="M152.2,230.6H42.8c-6.6,0-12-5.4-12-12V21.4c0-6.6,5.4-12,12-12h109.3c6.6,0,12,5.4,12,12v197.2
		C164.2,225.2,158.8,230.6,152.2,230.6z"/>
	<path class="st3" d="M151.2,229H43.8c-6.6,0-12-5.4-12-12V23c0-6.6,5.4-12,12-12h107.4c6.6,0,12,5.4,12,12V217
		C163.2,223.6,157.8,229,151.2,229z"/>
	<rect x="42.2" y="41.4" class="st2" width="110.6" height="162.6"/>
	<path class="st4" d="M107.9,27.3H87.1c-0.8,0-1.5-0.7-1.5-1.5v-0.3c0-0.8,0.7-1.5,1.5-1.5h20.9c0.8,0,1.5,0.7,1.5,1.5v0.3
		C109.4,26.6,108.8,27.3,107.9,27.3z"/>
	<circle class="st2" cx="97.5" cy="217" r="7.6"/>
	<path class="st2" d="M99.3,220.3h-3.7c-1.4,0-2.5-1.1-2.5-2.5v-1.5c0-1.4,1.1-2.5,2.5-2.5h3.7c1.4,0,2.5,1.1,2.5,2.5v1.5
		C101.8,219.2,100.7,220.3,99.3,220.3z"/>
</g>
<g id="Layer_2">
	<g>
		<rect x="54" y="48.4" class="st5" width="86.4" height="26.5"/>
	</g>
	<rect x="54.4" y="79.9" class="st6" width="86.1" height="64"/>
	<rect x="53.6" y="167.2" class="st7" width="86.8" height="9.6"/>
	<rect x="53.6" y="150.4" class="st7" width="86.8" height="9.6"/>
	<rect x="53.6" y="184" class="st7" width="86.8" height="9.6"/>
</g>
</svg>
