<?xml version="1.0" encoding="utf-8"?>
<!-- Generator: Adobe Illustrator 21.0.0, SVG Export Plug-In . SVG Version: 6.00 Build 0)  -->
<svg version="1.1" id="Layer_1" xmlns="http://www.w3.org/2000/svg" xmlns:xlink="http://www.w3.org/1999/xlink" x="0px" y="0px"
	 viewBox="0 0 240 195" style="enable-background:new 0 0 240 195;" xml:space="preserve">
<style type="text/css">
	.st0{fill:#C7CBD4;}
	.st1{fill:#FFFFFF;}
	.st2{fill:#2980B9;}
	.st3{fill:#D3433C;}
	.st4{fill:#D35400;}
</style>
<g>
	<path class="st0" d="M16.4,191.8c-6.5,0-11.8-5.3-11.8-11.8V47c0-6.5,5.3-11.8,11.8-11.8h207.2c6.5,0,11.8,5.3,11.8,11.8v133
		c0,6.5-5.3,11.8-11.8,11.8H16.4z"/>
	<path d="M223.6,35.5c6.3,0,11.5,5.2,11.5,11.5v133c0,6.3-5.2,11.5-11.5,11.5H16.4c-6.3,0-11.5-5.2-11.5-11.5V47
		c0-6.3,5.2-11.5,11.5-11.5H223.6 M223.6,35H16.4c-6.6,0-12,5.4-12,12v133c0,6.6,5.4,12,12,12h207.2c6.6,0,12-5.4,12-12V47
		C235.6,40.4,230.2,35,223.6,35L223.6,35z"/>
</g>
<g>
	<path class="st0" d="M18,190.7c-6.5,0-11.8-5.3-11.8-11.8V48.1c0-6.5,5.3-11.8,11.8-11.8h204c6.5,0,11.8,5.3,11.8,11.8v130.8
		c0,6.5-5.3,11.8-11.8,11.8H18z"/>
	<path d="M222,36.6c6.3,0,11.5,5.2,11.5,11.5v130.8c0,6.3-5.2,11.5-11.5,11.5H18c-6.3,0-11.5-5.2-11.5-11.5V48.1
		c0-6.3,5.2-11.5,11.5-11.5H222 M222,36.1H18c-6.6,0-12,5.4-12,12v130.8c0,6.6,5.4,12,12,12h204c6.6,0,12-5.4,12-12V48.1
		C234,41.5,228.6,36.1,222,36.1L222,36.1z"/>
</g>
<g>
	<rect x="27.3" y="49.9" class="st1" width="191.5" height="127.3"/>
	<path d="M218.5,50.1v126.8h-191V50.1H218.5 M219,49.6H27v127.8h192V49.6L219,49.6z"/>
</g>
<g>
	<ellipse class="st1" cx="226.5" cy="113.4" rx="5.3" ry="5.3"/>
	<path d="M226.5,108.3c2.8,0,5,2.3,5,5.1c0,2.8-2.2,5.1-5,5.1s-5-2.3-5-5.1C221.5,110.6,223.7,108.3,226.5,108.3 M226.5,107.8
		c-3,0-5.5,2.5-5.5,5.6s2.5,5.6,5.5,5.6s5.5-2.5,5.5-5.6S229.5,107.8,226.5,107.8L226.5,107.8z"/>
</g>
<g>
	<rect x="43" y="54.5" class="st2" width="156" height="24.1"/>
</g>
<rect x="43" y="85.1" class="st3" width="71" height="85.2"/>
<rect x="129.9" y="100.3" class="st4" width="69.1" height="8.8"/>
<rect x="129.9" y="85.1" class="st4" width="69.1" height="8.8"/>
<rect x="129.9" y="115.6" class="st4" width="69.1" height="8.8"/>
<rect x="129.9" y="146.3" class="st4" width="69.1" height="8.8"/>
<rect x="129.9" y="131" class="st4" width="69.1" height="8.8"/>
<rect x="129.9" y="161.6" class="st4" width="69.1" height="8.8"/>
<g>
	<path class="st1" d="M16.7,115.8c-0.6,0-1.1-0.2-1.5-0.7c-0.8-0.9-0.8-2.4,0-3.3c0.4-0.4,0.9-0.7,1.5-0.7c0.6,0,1.1,0.2,1.5,0.7
		c0.8,0.9,0.8,2.4,0,3.3C17.8,115.6,17.2,115.8,16.7,115.8z"/>
	<g>
		<path d="M16.7,111.3c0.5,0,1,0.2,1.4,0.6c0.8,0.9,0.8,2.2,0,3.1c-0.4,0.4-0.9,0.6-1.4,0.6s-1-0.2-1.4-0.6c-0.8-0.9-0.8-2.2,0-3.1
			C15.6,111.6,16.1,111.3,16.7,111.3 M16.7,111.1c-0.6,0-1.1,0.2-1.6,0.7c-0.9,0.9-0.9,2.5,0,3.4c0.4,0.5,1,0.7,1.6,0.7
			s1.1-0.2,1.6-0.7c0.9-0.9,0.9-2.5,0-3.4C17.8,111.3,17.2,111.1,16.7,111.1L16.7,111.1z"/>
	</g>
</g>
</svg>
