<?xml version="1.0" encoding="utf-8"?>
<!-- Generator: Adobe Illustrator 21.0.0, SVG Export Plug-In . SVG Version: 6.00 Build 0)  -->
<svg version="1.1" xmlns="http://www.w3.org/2000/svg" xmlns:xlink="http://www.w3.org/1999/xlink" x="0px" y="0px"
	 viewBox="0 0 240 195" style="enable-background:new 0 0 240 195;" xml:space="preserve">
<style type="text/css">
	.st0{fill:#282827;}
	.st1{fill:#F1F2F4;}
	.st2{fill:#E0E4E7;}
	.st3{fill:#F1F2F6;}
	.st4{fill:#BCBCBC;}
	.st5{fill:#C8C8C8;}
	.st6{fill:#E6E6E6;}
	.st7{fill:#E26D64;}
	.st8{fill:#DFBD41;}
	.st9{fill:#33D687;}
	.st10{fill:#D3D3D3;}
	.st11{fill:#FFFFFF;}
	.st12{opacity:0.33;}
	.st13{stroke:#F1F2F4;stroke-miterlimit:10;}
	.st14{fill:none;stroke:#F1F2F4;stroke-miterlimit:10;}
</style>
<g id="Layer_1">
	<g>
		<path class="st0" d="M238.2,145.4H1.8V27.1C1.8,20.4,7.3,15,14,15H226c6.7,0,12.1,5.4,12.1,12.1V145.4z"/>
		<rect x="12" y="24" class="st1" width="216" height="112.4"/>
		<path class="st2" d="M238.2,145.4H1.8v11.8c0,2.3,1.9,4.3,4.3,4.3h227.8c2.3,0,4.3-1.9,4.3-4.3V145.4z"/>
		<circle class="st0" cx="120" cy="153.4" r="3.5"/>
		<circle class="st3" cx="120" cy="20" r="1.1"/>
		<polygon class="st2" points="146.3,178.2 94.1,178.2 101.9,161.4 138.4,161.4 		"/>
		<polygon class="st4" points="138.6,161.4 140.6,166 99.8,166 101.8,161.4 		"/>
		<path class="st2" d="M149.2,180H91.1c-0.5,0-0.9-0.4-0.9-0.9l0,0c0-0.5,0.4-0.9,0.9-0.9h58.1c0.5,0,0.9,0.4,0.9,0.9l0,0
			C150.1,179.6,149.7,180,149.2,180z"/>
		<rect x="12" y="24" class="st5" width="216" height="9"/>
		<polygon class="st6" points="12,42 228,42 228,33 25.5,33 12,33 		"/>
		<path class="st6" d="M59.6,27H36.4c-1.2,0-2.2,0.4-2.8,1.1L30,33h36l-3.6-4.9C61.8,27.4,60.8,27,59.6,27z"/>
		<circle class="st7" cx="16.5" cy="28.5" r="1.5"/>
		<circle class="st8" cx="21.5" cy="28.5" r="1.5"/>
		<circle class="st9" cx="26.5" cy="28.5" r="1.5"/>
		<circle class="st10" cx="60" cy="29" r="1"/>
		<path class="st11" d="M221.6,40H17.4c-0.8,0-1.4-0.6-1.4-1.4v-2.2c0-0.8,0.6-1.4,1.4-1.4h204.2c0.8,0,1.4,0.6,1.4,1.4v2.2
			C223,39.4,222.4,40,221.6,40z"/>
	</g>
</g>
<g id="Layer_5">
	<g class="st12">
		<g>
			<g>
				<polygon points="136.2,88.2 136.2,82.5 140.7,83.7 140.7,87.1 				"/>
			</g>
			<g>
				<polygon points="134.5,77.6 130.8,73.2 135.1,71.2 137.3,73.8 				"/>
			</g>
			<g>
				<polygon points="126.4,70.5 120.8,69.5 122.7,65.2 126,65.8 				"/>
			</g>
			<g>
				<polygon points="115.6,70.3 110.7,73.1 109.4,68.6 112.3,66.9 				"/>
			</g>
			<g>
				<polygon points="107.2,77.1 105.3,82.4 101.4,79.8 102.6,76.6 				"/>
			</g>
			<g>
				<polygon points="105.2,87.6 107.1,93 102.4,93.5 101.3,90.3 				"/>
			</g>
			<g>
				<polygon points="110.4,97.1 115.3,99.9 112,103.3 109.1,101.6 				"/>
			</g>
			<g>
				<polygon points="120.4,100.9 126,100 125.7,104.6 122.3,105.2 				"/>
			</g>
			<g>
				<polygon points="130.6,97.4 134.3,93.1 137,96.9 134.8,99.5 				"/>
			</g>
			<g>
				<polygon points="136.2,88.2 136.2,82.5 140.7,83.7 140.7,87.1 				"/>
			</g>
		</g>
		<path d="M121,68.9c-9,0-16.3,7.3-16.3,16.3c0,9,7.3,16.3,16.3,16.3s16.3-7.3,16.3-16.3C137.3,76.2,130,68.9,121,68.9z M121,96.6
			c-6.3,0-11.4-5.1-11.4-11.4s5.1-11.4,11.4-11.4s11.4,5.1,11.4,11.4S127.3,96.6,121,96.6z"/>
	</g>
</g>
<g id="Layer_2">
	<g>
		<g>
			<g>
				<polygon points="135.2,88.2 135.2,82.5 139.7,83.7 139.7,87.1 				"/>
			</g>
			<g>
				<polygon points="133.5,77.6 129.8,73.2 134.1,71.2 136.3,73.8 				"/>
			</g>
			<g>
				<polygon points="125.4,70.5 119.8,69.5 121.7,65.2 125,65.8 				"/>
			</g>
			<g>
				<polygon points="114.6,70.3 109.7,73.1 108.4,68.6 111.3,66.9 				"/>
			</g>
			<g>
				<polygon points="106.2,77.1 104.3,82.4 100.4,79.8 101.6,76.6 				"/>
			</g>
			<g>
				<polygon points="104.2,87.6 106.1,93 101.4,93.5 100.3,90.3 				"/>
			</g>
			<g>
				<polygon points="109.4,97.1 114.3,99.9 111,103.3 108.1,101.6 				"/>
			</g>
			<g>
				<polygon points="119.4,100.9 125,100 124.7,104.6 121.3,105.2 				"/>
			</g>
			<g>
				<polygon points="129.6,97.4 133.3,93.1 136,96.9 133.8,99.5 				"/>
			</g>
			<g>
				<polygon points="135.2,88.2 135.2,82.5 139.7,83.7 139.7,87.1 				"/>
			</g>
		</g>
		<path d="M120,68.9c-9,0-16.3,7.3-16.3,16.3c0,9,7.3,16.3,16.3,16.3s16.3-7.3,16.3-16.3C136.3,76.2,129,68.9,120,68.9z M120,96.6
			c-6.3,0-11.4-5.1-11.4-11.4s5.1-11.4,11.4-11.4s11.4,5.1,11.4,11.4S126.3,96.6,120,96.6z"/>
	</g>
</g>
<g id="Layer_4">
	<path class="st13" d="M143.2,57.7c0,0-0.1,0-0.1,0.1c-0.1,0.1-0.3,0.2-0.4,0.3c-0.3,0.2-0.6,0.5-0.8,0.8c-0.6,0.7-1.3,1.4-2,2
		c-0.5,0.5-1,1.1-1.5,1.6c-0.1,0.1-0.2,0.1-0.3,0.1c-0.1,0-0.1,0-0.2,0c-0.1,0-0.3-0.1-0.4-0.1c-0.5-0.1-1-0.2-1.6-0.4
		c-0.4-0.1-0.8-0.2-1.1-0.3c-0.2,0-0.4-0.1-0.5-0.2c-0.4-1.3-0.8-2.6-1.2-3.9c0.1-0.1,0.1-0.1,0.2-0.2c0.4-0.5,0.9-0.9,1.3-1.4
		c0.7-0.7,1.4-1.4,2-2.1c0.3-0.3,0.6-0.7,1-1c0.1-0.1,0.2-0.2,0.3-0.3c0.1-0.1,0.1-0.1,0.1-0.2c0.1-0.1,0-0.2-0.1-0.2
		c-0.1,0-0.1,0-0.2,0c-0.5,0-0.9,0.1-1.4,0.2c-0.7,0.1-1.4,0.2-2.1,0.4c-0.2,0.1-0.4,0.1-0.6,0.2c-0.4,0.1-0.8,0.2-1.1,0.4
		c-0.4,0.2-0.9,0.4-1.3,0.6c-0.6,0.3-1.1,0.7-1.6,1.1c-0.6,0.6-1.1,1.2-1.3,2c-0.1,0.4-0.2,0.8-0.2,1.2c0,1,0,2,0.1,3
		c0,0.8,0,1.5,0,2.3c0,0.5,0,1-0.1,1.5c0,0.2,0,0.3-0.1,0.5c0,0.4-0.1,0.8-0.2,1.2c-0.1,0.4-0.2,0.8-0.4,1.2
		c-0.2,0.4-0.3,0.8-0.6,1.2c-0.2,0.3-0.4,0.6-0.5,0.9c-0.3,0.5-0.6,1.1-0.9,1.6c-0.3,0.6-0.7,1.1-1,1.7c-0.2,0.4-0.5,0.8-0.7,1.2
		c-0.3,0.5-0.6,1-0.8,1.5c-0.3,0.6-0.7,1.2-1,1.7c-0.3,0.6-0.7,1.2-1,1.7c-0.2,0.4-0.4,0.8-0.7,1.1c-0.3,0.5-0.6,1-0.9,1.5
		c-0.3,0.5-0.6,0.9-0.8,1.4c-0.3,0.5-0.6,1-0.9,1.5c-0.3,0.5-0.6,1-0.9,1.5c-0.3,0.6-0.7,1.1-1,1.7c-0.2,0.4-0.5,0.8-0.7,1.2
		c-0.3,0.5-0.6,1-0.9,1.5c-0.3,0.5-0.6,1-0.8,1.5c-0.2,0.3-0.3,0.5-0.5,0.8c-0.2,0.3-0.3,0.5-0.5,0.8c-0.2,0.4-0.4,0.8-0.7,1.1
		c-0.3,0.5-0.6,1-0.8,1.4c-0.3,0.5-0.6,1-0.9,1.5s-0.6,1-0.9,1.5c-0.4,0.7-0.8,1.3-1.2,2c-0.3,0.6-0.7,1.1-1,1.7
		c-0.3,0.4-0.5,0.9-0.7,1.3l5.6,3.3c0.3-0.5,0.5-0.9,0.8-1.4c0.2-0.4,0.5-0.8,0.7-1.2c0.2-0.4,0.5-0.8,0.7-1.2
		c0.3-0.6,0.7-1.2,1-1.8c0.2-0.4,0.4-0.8,0.7-1.2c0.2-0.4,0.5-0.8,0.7-1.2c0.3-0.6,0.7-1.2,1-1.7c0.3-0.5,0.5-1,0.8-1.4
		c0.3-0.5,0.6-1,0.9-1.5c0.3-0.5,0.6-1,0.9-1.5c0.3-0.5,0.5-0.9,0.8-1.4c0.3-0.5,0.6-1,0.9-1.5c0.2-0.4,0.5-0.8,0.7-1.2
		c0.3-0.5,0.6-1,0.9-1.5c0.2-0.4,0.5-0.8,0.7-1.2c0.2-0.4,0.5-0.8,0.7-1.2c0.2-0.4,0.5-0.8,0.7-1.2c0.2-0.4,0.5-0.8,0.7-1.2
		c0.2-0.3,0.4-0.6,0.5-0.9c0.2-0.4,0.5-0.8,0.7-1.2c0.2-0.4,0.5-0.8,0.7-1.2c0.2-0.4,0.5-0.8,0.7-1.2c0.2-0.4,0.5-0.8,0.7-1.2
		c0.2-0.4,0.5-0.8,0.7-1.2c0.2-0.4,0.5-0.8,0.7-1.2c0.1-0.2,0.3-0.5,0.4-0.7c0.1-0.2,0.2-0.4,0.3-0.5c0.2-0.4,0.4-0.8,0.7-1.1
		c0.5-0.8,1.1-1.5,1.7-2.2c0.9-1,1.8-1.8,2.9-2.5c0.6-0.3,1.2-0.6,1.8-0.8c0.2-0.1,0.4-0.1,0.6-0.2c0.4-0.1,0.7-0.2,1-0.4
		c0.6-0.4,1-0.9,1.3-1.4c0.3-0.5,0.6-1.1,0.8-1.7c0.2-0.6,0.4-1.2,0.6-1.8c0.1-0.2,0.1-0.5,0.2-0.7c0.1-0.4,0.1-0.7,0.2-1.1
		c0.1-0.6,0.2-1.3,0.2-1.9c0,0,0-0.1,0-0.1C143.4,57.7,143.3,57.6,143.2,57.7z"/>
	<path d="M109.4,104.6c-3-1.5-6.7-0.2-8.2,2.9c-1.5,3-0.2,6.7,2.9,8.2c3,1.5,6.7,0.2,8.2-2.9C113.7,109.7,112.5,106,109.4,104.6z
		 M109.4,113.6l-4.3,0.1l-2.5-3.4l1.7-3.6l4.3-0.1l2.5,3.4L109.4,113.6z"/>
	<path class="st14" d="M114.3,103.3"/>
</g>
<g id="Layer_3">
</g>
</svg>
